PathFileType	4	(X/Y/Z)	RBDS014\RBDS014runT35.trc
DataRate	CameraRate	NumFrames	NumMarkers	Units	OrigDataRate	OrigDataStartFrame	OrigNumFrames
150.000000	150.000000	4	33	mm	150.000000	1125	4500
Frame#	Time	L.ASIS			L.Heel.Bottom			L.Heel.Lateral			L.Heel.Top			L.Iliac.Crest			L.MT1			L.MT5			L.PSIS			L.Shank.Bottom.Lateral			L.Shank.Bottom.Medial			L.Shank.Top.Lateral			L.Shank.Top.Medial			L.Thigh.Bottom.Lateral			L.Thigh.Bottom.Medial			L.Thigh.Top.Lateral			L.Thigh.Top.Medial			R.ASIS			R.ASY			R.Heel.Bottom			R.Heel.Lateral			R.Heel.Top			R.Iliac.Crest			R.MT1			R.MT5			R.PSIS			R.Shank.Bottom.Lateral			R.Shank.Bottom.Medial			R.Shank.Top.Lateral			R.Shank.Top.Medial			R.Thigh.Bottom.Lateral			R.Thigh.Bottom.Medial			R.Thigh.Top.Lateral			R.Thigh.Top.Medial			
		X1	Y1	Z1	X2	Y2	Z2	X3	Y3	Z3	X4	Y4	Z4	X5	Y5	Z5	X6	Y6	Z6	X7	Y7	Z7	X8	Y8	Z8	X9	Y9	Z9	X10	Y10	Z10	X11	Y11	Z11	X12	Y12	Z12	X13	Y13	Z13	X14	Y14	Z14	X15	Y15	Z15	X16	Y16	Z16	X17	Y17	Z17	X18	Y18	Z18	X19	Y19	Z19	X20	Y20	Z20	X21	Y21	Z21	X22	Y22	Z22	X23	Y23	Z23	X24	Y24	Z24	X25	Y25	Z25	X26	Y26	Z26	X27	Y27	Z27	X28	Y28	Z28	X29	Y29	Z29	X30	Y30	Z30	X31	Y31	Z31	X32	Y32	Z32	X33	Y33	Z33	

1126	7.500000000000001	2173.925700018362	1112.164459828455	892.3586684423979	2317.934806595099	29.67014004225282	977.2774341461377	2336.534270550379	56.823394325659	936.8106161025684	2307.964890807116	79.90344970729866	973.9975938923972	2094.988135084091	1182.746851103079	852.7059201895052	2520.854519692713	137.0266076313765	1043.452059041448	2504.990387075912	107.6368264247227	924.7406088622696	2000.316183660005	1147.583460367366	956.1412641727647	2347.024933665065	224.6716079235793	911.649921393795	2298.826062738	217.6649145417306	939.6577338836892	2323.893652861178	299.7799542264081	892.8683790055819	2277.30567178812	293.8238175338529	920.1391221573373	2235.170323464902	747.6111354687042	855.6591629395338	2176.850652163541	718.7369545551251	887.7462833997288	2175.831604277162	839.1932491938985	838.0706780230327	2121.76223807597	813.4852469358913	870.8828399951577	2182.684887332985	1109.381026089572	1131.783924749545	1480.745616620865	282.1937117667406	1066.776046065625	1404.888354472664	450.8272311890714	974.4398483525109	1414.07373955875	444.6696887707296	1023.869743504073	1453.526497401649	452.9590493445051	991.7155992028903	2146.578644231162	1190.033038587725	1146.848636293124	1457.242030368766	225.1423506089959	1019.34943020893	1403.767673144262	285.6813007141761	1107.317548837552	2011.6785077058	1150.91120835153	1055.071740978717	1537.418599905726	466.0317153738698	1079.61768789492	1540.278766617107	484.8802916932169	1031.893594016716	1603.519182806804	515.0673411097508	1100.160510904016	1601.967499839102	534.1871076014796	1050.7694490005	1974.486873213002	730.287094229201	1179.659097852671	1917.54317658666	753.9424940389526	1139.980349408713	2003.812195081601	835.2741863847574	1194.323663489761	1951.229666273998	857.4243169334488	1154.049299737434	
1127	7.506666666666667	2173.520916158731	1109.463472838327	892.0611976693995	2311.842835006727	26.40705376675716	977.4157659723232	2330.450610900715	53.19335847229648	936.7257327031886	2302.833891604756	76.56913266571293	974.3098957046986	2094.179656458123	1179.36867921182	852.7373941118266	2516.444322660188	130.1834317752664	1040.609640626491	2498.819038657542	101.0745167407443	922.497655287693	1999.748218233909	1143.508259554779	957.0832278105199	2341.843390357955	218.7381576841612	910.8987822034529	2294.097715197933	212.0462533103512	939.6396778575506	2318.819470471592	293.9241101552265	892.2285509585785	2272.716987276493	288.2764097087284	920.2923608992746	2233.212413172034	743.2997073062642	855.003534865441	2174.675508615364	714.7077715155218	887.0247005697549	2174.451440544175	835.3356400899251	837.7136021054436	2120.270678096173	809.882859498594	870.4773694299491	2183.043482417155	1106.782923830572	1131.530865230716	1475.831664078838	297.1303145867031	1063.854008616507	1407.233325251778	470.0058635601919	974.4800853780928	1416.434967449976	462.7554375649702	1023.692788545948	1455.894564824879	469.6328880863796	991.3037977093664	2146.418084691326	1187.480261779427	1146.916128319553	1449.601627451247	241.9360083447853	1015.760222554266	1399.505852289223	303.4811270794187	1104.931197327108	2011.611673455739	1146.972809317258	1055.987964921484	1540.72265155747	477.2076968492477	1079.475263122371	1544.393150009435	496.7324348113022	1032.032265339602	1609.360053921702	522.4090560265174	1100.545461713231	1608.58389089618	542.5327830842199	1051.564287188576	1981.208481408816	723.6293016792594	1180.230478131499	1923.920798840753	745.8930383749466	1140.247659808715	2008.341487602703	829.1733945995704	1194.249606003269	1955.410152837504	850.122569978232	1153.766940227338	
1128	7.513333333333334	2173.068928188857	1106.34476368745	891.8028830666975	2302.024827940581	24.00625946873297	977.6339216929415	2320.879344386909	50.25315876180498	936.7709802759814	2294.570777158789	74.11517871615152	974.847191810547	2093.438038816684	1175.621067456745	852.7915583635047	2509.306841952611	121.6098859875616	1037.690507215549	2489.463873106011	93.25842171868914	920.1532349597477	1999.060610076151	1138.886744638791	958.056684916376	2334.619534512568	212.6727217620906	910.3186194142272	2287.350700950734	206.6627181716534	939.8317931734954	2312.249962037548	288.066596168987	891.7442335077423	2266.660145203385	283.0915991802356	920.6457945010532	2231.472199075	738.8675307600794	854.3616060201402	2172.818980731339	710.4652183418076	886.3634760474644	2173.079651958721	831.2089222955972	837.3078262757115	2118.893927113241	805.9283491544396	870.0968619643764	2183.268750377066	1103.679632421051	1131.3794834874	1472.842877203443	312.0411962478559	1060.943601112656	1411.538629741943	489.2038341476788	975.1743513609899	1420.779436078072	480.6822059759497	1024.114451123045	1460.178302084568	486.2408319006458	991.4561790202816	2146.005463812852	1184.344917217271	1147.149855398365	1443.867442864572	258.9637784871049	1012.031169386197	1397.284866646175	321.0646264906441	1102.641053181351	2011.390634295032	1142.410702924249	1056.921359681916	1545.727016429193	487.9155997633657	1079.784890621368	1550.159886139785	508.2477629103313	1032.708061804646	1616.674767480543	529.1191262829952	1101.4531202194	1616.627000738819	550.380744618786	1052.975074387473	1988.263840447608	716.3301649728327	1180.629709299958	1930.644977194926	737.1585333089113	1140.342205524201	2013.031013503998	822.3997662056346	1194.095226737402	1959.775971189794	842.1127926823136	1153.404161638607	
1129	7.52	2172.515594185256	1102.771880874848	891.6155145087519	2288.857847520091	22.4513146004838	977.9739172254783	2308.169192314914	48.03899522816184	937.0061539997025	2283.446309955882	72.51406745022271	975.6482491400553	2092.749115248326	1171.427868234808	852.8442092633427	2499.600704964636	111.6893749657648	1034.921767921278	2477.219904059061	84.59097298287325	917.8752909332745	1998.203002422501	1133.710388065467	959.0403832847029	2325.644702818718	206.6297130369922	909.9776559749396	2278.810466175359	201.6430938635503	940.1900189870283	2304.466246696343	282.3288022046584	891.4253810275495	2259.350389024767	278.3659135619516	921.0928858248033	2229.809845009049	734.3099329448163	853.6409215316634	2171.182554453669	706.0337970796401	885.764551180872	2171.575182227777	826.8210618774651	836.8076287248532	2117.524511325899	801.6560871478115	869.7729522557914	2183.351241696136	1100.067471842931	1131.346694894207	1471.865400533218	326.8356015760887	1058.17807334458	1417.766934072322	508.1566318355709	976.3608445517237	1427.036126989148	498.2594313850899	1024.992155055745	1466.333755705851	502.601187883233	992.0445053234746	2145.314348281609	1180.585193694565	1147.571386275343	1440.217453934839	276.0381598079545	1008.373262092154	1397.141991421085	338.3285971647039	1100.547379439318	2010.988486600242	1137.218175549457	1057.847284942708	1552.376084649334	498.1022713415666	1080.454347895711	1557.561280404982	519.3419082226378	1033.821667272647	1625.375656127207	535.1918456300846	1102.786226472636	1626.056350331449	557.6859595100728	1054.888312100508	1995.619668690701	708.4710446473283	1180.860185183747	1937.676141595968	727.8328579616715	1140.286402290684	2017.855425906631	815.0238758611088	1193.895287237552	1964.293899240341	833.4753152179131	1153.016183255391	
